{
	"asset":{
		"generator":"Khronos glTF Blender I/O v5.1.18",
		"version":"2.0"
	},
	"scene":0,
	"scenes":[
		{
			"name":"Scene",
			"nodes":[
				0,
				1,
				2,
				3,
				4,
				5,
				6,
				7,
				8,
				9,
				10
			]
		}
	],
	"nodes":[
		{
			"mesh":0,
			"name":"Hull",
			"rotation":[
				0,
				0,
				-0.7071068286895752,
				0.7071068286895752
			]
		},
		{
			"mesh":1,
			"name":"Rudder",
			"translation":[
				0,
				0,
				11.212455749511719
			]
		},
		{
			"mesh":2,
			"name":"Ventilator 1",
			"rotation":[
				0,
				0.2588190734386444,
				0,
				0.965925931930542
			],
			"scale":[
				0.23281097412109375,
				0.23281097412109375,
				0.23281097412109375
			],
			"translation":[
				-0.6000000238418579,
				0.877128005027771,
				-0.4385969936847687
			]
		},
		{
			"mesh":3,
			"name":"Smoke Stack",
			"rotation":[
				0.08022069931030273,
				0,
				0,
				0.9967772364616394
			],
			"scale":[
				0.7890120148658752,
				0.78901207447052,
				0.78901207447052
			],
			"translation":[
				0,
				0.898057222366333,
				-2.5949623584747314
			]
		},
		{
			"mesh":4,
			"name":"Ventilator 1.002",
			"rotation":[
				0,
				-0.2588190734386444,
				0,
				0.965925931930542
			],
			"scale":[
				0.23281097412109375,
				0.23281097412109375,
				0.23281097412109375
			],
			"translation":[
				0.6000000238418579,
				0.877128005027771,
				0.9260299801826477
			]
		},
		{
			"mesh":5,
			"name":"Ventilator 1.001",
			"rotation":[
				0,
				-0.2588190734386444,
				0,
				0.965925931930542
			],
			"scale":[
				0.23281097412109375,
				0.23281097412109375,
				0.23281097412109375
			],
			"translation":[
				0.6000000238418579,
				0.8771278858184814,
				-0.43859678506851196
			]
		},
		{
			"mesh":6,
			"name":"Ventilator 1.003",
			"rotation":[
				0,
				0.2588190734386444,
				0,
				0.965925931930542
			],
			"scale":[
				0.23281097412109375,
				0.23281097412109375,
				0.23281097412109375
			],
			"translation":[
				-0.6000000238418579,
				0.877128005027771,
				0.9260299801826477
			]
		},
		{
			"mesh":7,
			"name":"Ventilator 1.004",
			"rotation":[
				0,
				0.2588190734386444,
				0,
				0.9659258127212524
			],
			"scale":[
				0.20952998101711273,
				0.20952999591827393,
				0.20952998101711273
			],
			"translation":[
				-0.8999999761581421,
				0.41262298822402954,
				-2.5840299129486084
			]
		},
		{
			"mesh":8,
			"name":"Ventilator 1.005",
			"rotation":[
				0,
				-0.2588190734386444,
				0,
				0.9659258127212524
			],
			"scale":[
				0.20952998101711273,
				0.20952999591827393,
				0.20952998101711273
			],
			"translation":[
				0.8999999761581421,
				0.41262298822402954,
				-2.5840299129486084
			]
		},
		{
			"mesh":9,
			"name":"Paddle.001",
			"scale":[
				-0.05205988883972168,
				-0.05205988883972168,
				-0.05205988883972168
			],
			"translation":[
				1.5056003332138062,
				0.14645470678806305,
				0.1788792461156845
			]
		},
		{
			"mesh":10,
			"name":"Paddle.002",
			"scale":[
				-0.05205988883972168,
				-0.05205988883972168,
				-0.05205988883972168
			],
			"translation":[
				1.5056003332138062,
				0.14645470678806305,
				0.1788792461156845
			]
		}
	],
	"materials":[
		{
			"doubleSided":true,
			"name":"Material.001",
			"pbrMetallicRoughness":{
				"baseColorTexture":{
					"index":0
				},
				"metallicFactor":0,
				"roughnessFactor":0.5
			}
		},
		{
			"doubleSided":true,
			"name":"Material.011",
			"pbrMetallicRoughness":{
				"baseColorTexture":{
					"index":1
				},
				"metallicFactor":0,
				"roughnessFactor":0.5
			}
		},
		{
			"doubleSided":true,
			"name":"Material.004",
			"pbrMetallicRoughness":{
				"baseColorTexture":{
					"index":2
				},
				"metallicFactor":0,
				"roughnessFactor":0.5
			}
		},
		{
			"doubleSided":true,
			"name":"Material.010",
			"pbrMetallicRoughness":{
				"baseColorTexture":{
					"index":3
				},
				"metallicFactor":0,
				"roughnessFactor":0.5
			}
		},
		{
			"doubleSided":true,
			"name":"Material.005",
			"pbrMetallicRoughness":{
				"baseColorTexture":{
					"index":4
				},
				"metallicFactor":0,
				"roughnessFactor":0.5
			}
		},
		{
			"doubleSided":true,
			"name":"Material.006",
			"pbrMetallicRoughness":{
				"baseColorTexture":{
					"index":5
				},
				"metallicFactor":0,
				"roughnessFactor":0.5
			}
		},
		{
			"doubleSided":true,
			"name":"Material.007",
			"pbrMetallicRoughness":{
				"baseColorTexture":{
					"index":6
				},
				"metallicFactor":0,
				"roughnessFactor":0.5
			}
		},
		{
			"doubleSided":true,
			"name":"Material.008",
			"pbrMetallicRoughness":{
				"baseColorTexture":{
					"index":7
				},
				"metallicFactor":0,
				"roughnessFactor":0.5
			}
		},
		{
			"doubleSided":true,
			"name":"Material.009",
			"pbrMetallicRoughness":{
				"baseColorTexture":{
					"index":8
				},
				"metallicFactor":0,
				"roughnessFactor":0.5
			}
		},
		{
			"doubleSided":true,
			"name":"Material.003",
			"pbrMetallicRoughness":{
				"baseColorTexture":{
					"index":9
				},
				"metallicFactor":0,
				"roughnessFactor":0.5
			}
		}
	],
	"meshes":[
		{
			"name":"Plane",
			"primitives":[
				{
					"attributes":{
						"POSITION":0,
						"NORMAL":1,
						"TEXCOORD_0":2
					},
					"indices":3,
					"material":0
				}
			]
		},
		{
			"name":"Cube.007",
			"primitives":[
				{
					"attributes":{
						"POSITION":4,
						"NORMAL":5,
						"TEXCOORD_0":6
					},
					"indices":7,
					"material":1
				}
			]
		},
		{
			"name":"Cylinder.002",
			"primitives":[
				{
					"attributes":{
						"POSITION":8,
						"NORMAL":9,
						"TEXCOORD_0":10
					},
					"indices":11,
					"material":2
				}
			]
		},
		{
			"name":"Cylinder",
			"primitives":[
				{
					"attributes":{
						"POSITION":12,
						"NORMAL":13,
						"TEXCOORD_0":14
					},
					"indices":15,
					"material":3
				}
			]
		},
		{
			"name":"Cylinder.011",
			"primitives":[
				{
					"attributes":{
						"POSITION":16,
						"NORMAL":17,
						"TEXCOORD_0":18
					},
					"indices":11,
					"material":4
				}
			]
		},
		{
			"name":"Cylinder.012",
			"primitives":[
				{
					"attributes":{
						"POSITION":19,
						"NORMAL":20,
						"TEXCOORD_0":21
					},
					"indices":11,
					"material":5
				}
			]
		},
		{
			"name":"Cylinder.013",
			"primitives":[
				{
					"attributes":{
						"POSITION":22,
						"NORMAL":23,
						"TEXCOORD_0":24
					},
					"indices":11,
					"material":6
				}
			]
		},
		{
			"name":"Cylinder.014",
			"primitives":[
				{
					"attributes":{
						"POSITION":25,
						"NORMAL":26,
						"TEXCOORD_0":27
					},
					"indices":11,
					"material":7
				}
			]
		},
		{
			"name":"Cylinder.015",
			"primitives":[
				{
					"attributes":{
						"POSITION":28,
						"NORMAL":29,
						"TEXCOORD_0":30
					},
					"indices":11,
					"material":8
				}
			]
		},
		{
			"name":"Cube.005",
			"primitives":[
				{
					"attributes":{
						"POSITION":31,
						"NORMAL":32,
						"TEXCOORD_0":33
					},
					"indices":34,
					"material":9
				}
			]
		},
		{
			"name":"Cube.006",
			"primitives":[
				{
					"attributes":{
						"POSITION":35,
						"NORMAL":36,
						"TEXCOORD_0":37
					},
					"indices":38,
					"material":9
				}
			]
		}
	],
	"textures":[
		{
			"sampler":0,
			"source":0
		},
		{
			"sampler":0,
			"source":1
		},
		{
			"sampler":0,
			"source":2
		},
		{
			"sampler":0,
			"source":3
		},
		{
			"sampler":0,
			"source":2
		},
		{
			"sampler":0,
			"source":2
		},
		{
			"sampler":0,
			"source":2
		},
		{
			"sampler":0,
			"source":2
		},
		{
			"sampler":0,
			"source":2
		},
		{
			"sampler":0,
			"source":4
		}
	],
	"images":[
		{
			"mimeType":"image/png",
			"name":"Hull",
			"uri":"Hull.png"
		},
		{
			"mimeType":"image/png",
			"name":"Rudder",
			"uri":"Rudder.png"
		},
		{
			"mimeType":"image/png",
			"name":"Ventilator 1",
			"uri":"Ventilator%201.png"
		},
		{
			"mimeType":"image/png",
			"name":"Smoke Stack",
			"uri":"Smoke%20Stack.png"
		},
		{
			"mimeType":"image/png",
			"name":"Paddle_Texture",
			"uri":"Paddle_Texture.png"
		}
	],
	"accessors":[
		{
			"bufferView":0,
			"componentType":5126,
			"count":2104,
			"max":[
				1.0283678770065308,
				2.6080482006073,
				11.027242660522461
			],
			"min":[
				-1.7572888135910034,
				-2.6080482006073,
				-11.866756439208984
			],
			"type":"VEC3"
		},
		{
			"bufferView":1,
			"componentType":5126,
			"count":2104,
			"type":"VEC3"
		},
		{
			"bufferView":2,
			"componentType":5126,
			"count":2104,
			"type":"VEC2"
		},
		{
			"bufferView":3,
			"componentType":5123,
			"count":6840,
			"type":"SCALAR"
		},
		{
			"bufferView":4,
			"componentType":5126,
			"count":272,
			"max":[
				0.06826680153608322,
				-0.2621222138404846,
				-0.2399623990058899
			],
			"min":[
				-0.06826680153608322,
				-0.9307982325553894,
				-0.9381839632987976
			],
			"type":"VEC3"
		},
		{
			"bufferView":5,
			"componentType":5126,
			"count":272,
			"type":"VEC3"
		},
		{
			"bufferView":6,
			"componentType":5126,
			"count":272,
			"type":"VEC2"
		},
		{
			"bufferView":7,
			"componentType":5123,
			"count":600,
			"type":"SCALAR"
		},
		{
			"bufferView":8,
			"componentType":5126,
			"count":547,
			"max":[
				0.5321831107139587,
				4.3708367347717285,
				0.5
			],
			"min":[
				-0.5321835875511169,
				-4.84986686706543,
				-0.7834010124206543
			],
			"type":"VEC3"
		},
		{
			"bufferView":9,
			"componentType":5126,
			"count":547,
			"type":"VEC3"
		},
		{
			"bufferView":10,
			"componentType":5126,
			"count":547,
			"type":"VEC2"
		},
		{
			"bufferView":11,
			"componentType":5123,
			"count":2388,
			"type":"SCALAR"
		},
		{
			"bufferView":12,
			"componentType":5126,
			"count":270,
			"max":[
				0.5278907418251038,
				4.700375080108643,
				0.527890682220459
			],
			"min":[
				-0.5278907418251038,
				-1.368969440460205,
				-0.527890682220459
			],
			"type":"VEC3"
		},
		{
			"bufferView":13,
			"componentType":5126,
			"count":270,
			"type":"VEC3"
		},
		{
			"bufferView":14,
			"componentType":5126,
			"count":270,
			"type":"VEC2"
		},
		{
			"bufferView":15,
			"componentType":5123,
			"count":1044,
			"type":"SCALAR"
		},
		{
			"bufferView":16,
			"componentType":5126,
			"count":547,
			"max":[
				0.5321831107139587,
				4.3708367347717285,
				0.5
			],
			"min":[
				-0.5321835875511169,
				-4.84986686706543,
				-0.7834010124206543
			],
			"type":"VEC3"
		},
		{
			"bufferView":17,
			"componentType":5126,
			"count":547,
			"type":"VEC3"
		},
		{
			"bufferView":18,
			"componentType":5126,
			"count":547,
			"type":"VEC2"
		},
		{
			"bufferView":19,
			"componentType":5126,
			"count":547,
			"max":[
				0.5321831107139587,
				4.3708367347717285,
				0.5
			],
			"min":[
				-0.5321835875511169,
				-4.84986686706543,
				-0.7834010124206543
			],
			"type":"VEC3"
		},
		{
			"bufferView":20,
			"componentType":5126,
			"count":547,
			"type":"VEC3"
		},
		{
			"bufferView":21,
			"componentType":5126,
			"count":547,
			"type":"VEC2"
		},
		{
			"bufferView":22,
			"componentType":5126,
			"count":547,
			"max":[
				0.5321831107139587,
				4.3708367347717285,
				0.5
			],
			"min":[
				-0.5321835875511169,
				-4.84986686706543,
				-0.7834010124206543
			],
			"type":"VEC3"
		},
		{
			"bufferView":23,
			"componentType":5126,
			"count":547,
			"type":"VEC3"
		},
		{
			"bufferView":24,
			"componentType":5126,
			"count":547,
			"type":"VEC2"
		},
		{
			"bufferView":25,
			"componentType":5126,
			"count":547,
			"max":[
				0.5321831107139587,
				4.3708367347717285,
				0.5
			],
			"min":[
				-0.5321835875511169,
				-4.84986686706543,
				-0.7834010124206543
			],
			"type":"VEC3"
		},
		{
			"bufferView":26,
			"componentType":5126,
			"count":547,
			"type":"VEC3"
		},
		{
			"bufferView":27,
			"componentType":5126,
			"count":547,
			"type":"VEC2"
		},
		{
			"bufferView":28,
			"componentType":5126,
			"count":547,
			"max":[
				0.5321831107139587,
				4.3708367347717285,
				0.5
			],
			"min":[
				-0.5321835875511169,
				-4.84986686706543,
				-0.7834010124206543
			],
			"type":"VEC3"
		},
		{
			"bufferView":29,
			"componentType":5126,
			"count":547,
			"type":"VEC3"
		},
		{
			"bufferView":30,
			"componentType":5126,
			"count":547,
			"type":"VEC2"
		},
		{
			"bufferView":31,
			"componentType":5126,
			"count":955,
			"max":[
				1,
				18.96479034423828,
				18.964792251586914
			],
			"min":[
				-18,
				-18.96477699279785,
				-18.964778900146484
			],
			"type":"VEC3"
		},
		{
			"bufferView":32,
			"componentType":5126,
			"count":955,
			"type":"VEC3"
		},
		{
			"bufferView":33,
			"componentType":5126,
			"count":955,
			"type":"VEC2"
		},
		{
			"bufferView":34,
			"componentType":5123,
			"count":1956,
			"type":"SCALAR"
		},
		{
			"bufferView":35,
			"componentType":5126,
			"count":1034,
			"max":[
				75.8410873413086,
				18.96479034423828,
				18.964792251586914
			],
			"min":[
				56.841087341308594,
				-18.96477699279785,
				-18.964778900146484
			],
			"type":"VEC3"
		},
		{
			"bufferView":36,
			"componentType":5126,
			"count":1034,
			"type":"VEC3"
		},
		{
			"bufferView":37,
			"componentType":5126,
			"count":1034,
			"type":"VEC2"
		},
		{
			"bufferView":38,
			"componentType":5123,
			"count":2100,
			"type":"SCALAR"
		}
	],
	"bufferViews":[
		{
			"buffer":0,
			"byteLength":25248,
			"byteOffset":0,
			"target":34962
		},
		{
			"buffer":0,
			"byteLength":25248,
			"byteOffset":25248,
			"target":34962
		},
		{
			"buffer":0,
			"byteLength":16832,
			"byteOffset":50496,
			"target":34962
		},
		{
			"buffer":0,
			"byteLength":13680,
			"byteOffset":67328,
			"target":34963
		},
		{
			"buffer":0,
			"byteLength":3264,
			"byteOffset":81008,
			"target":34962
		},
		{
			"buffer":0,
			"byteLength":3264,
			"byteOffset":84272,
			"target":34962
		},
		{
			"buffer":0,
			"byteLength":2176,
			"byteOffset":87536,
			"target":34962
		},
		{
			"buffer":0,
			"byteLength":1200,
			"byteOffset":89712,
			"target":34963
		},
		{
			"buffer":0,
			"byteLength":6564,
			"byteOffset":90912,
			"target":34962
		},
		{
			"buffer":0,
			"byteLength":6564,
			"byteOffset":97476,
			"target":34962
		},
		{
			"buffer":0,
			"byteLength":4376,
			"byteOffset":104040,
			"target":34962
		},
		{
			"buffer":0,
			"byteLength":4776,
			"byteOffset":108416,
			"target":34963
		},
		{
			"buffer":0,
			"byteLength":3240,
			"byteOffset":113192,
			"target":34962
		},
		{
			"buffer":0,
			"byteLength":3240,
			"byteOffset":116432,
			"target":34962
		},
		{
			"buffer":0,
			"byteLength":2160,
			"byteOffset":119672,
			"target":34962
		},
		{
			"buffer":0,
			"byteLength":2088,
			"byteOffset":121832,
			"target":34963
		},
		{
			"buffer":0,
			"byteLength":6564,
			"byteOffset":123920,
			"target":34962
		},
		{
			"buffer":0,
			"byteLength":6564,
			"byteOffset":130484,
			"target":34962
		},
		{
			"buffer":0,
			"byteLength":4376,
			"byteOffset":137048,
			"target":34962
		},
		{
			"buffer":0,
			"byteLength":6564,
			"byteOffset":141424,
			"target":34962
		},
		{
			"buffer":0,
			"byteLength":6564,
			"byteOffset":147988,
			"target":34962
		},
		{
			"buffer":0,
			"byteLength":4376,
			"byteOffset":154552,
			"target":34962
		},
		{
			"buffer":0,
			"byteLength":6564,
			"byteOffset":158928,
			"target":34962
		},
		{
			"buffer":0,
			"byteLength":6564,
			"byteOffset":165492,
			"target":34962
		},
		{
			"buffer":0,
			"byteLength":4376,
			"byteOffset":172056,
			"target":34962
		},
		{
			"buffer":0,
			"byteLength":6564,
			"byteOffset":176432,
			"target":34962
		},
		{
			"buffer":0,
			"byteLength":6564,
			"byteOffset":182996,
			"target":34962
		},
		{
			"buffer":0,
			"byteLength":4376,
			"byteOffset":189560,
			"target":34962
		},
		{
			"buffer":0,
			"byteLength":6564,
			"byteOffset":193936,
			"target":34962
		},
		{
			"buffer":0,
			"byteLength":6564,
			"byteOffset":200500,
			"target":34962
		},
		{
			"buffer":0,
			"byteLength":4376,
			"byteOffset":207064,
			"target":34962
		},
		{
			"buffer":0,
			"byteLength":11460,
			"byteOffset":211440,
			"target":34962
		},
		{
			"buffer":0,
			"byteLength":11460,
			"byteOffset":222900,
			"target":34962
		},
		{
			"buffer":0,
			"byteLength":7640,
			"byteOffset":234360,
			"target":34962
		},
		{
			"buffer":0,
			"byteLength":3912,
			"byteOffset":242000,
			"target":34963
		},
		{
			"buffer":0,
			"byteLength":12408,
			"byteOffset":245912,
			"target":34962
		},
		{
			"buffer":0,
			"byteLength":12408,
			"byteOffset":258320,
			"target":34962
		},
		{
			"buffer":0,
			"byteLength":8272,
			"byteOffset":270728,
			"target":34962
		},
		{
			"buffer":0,
			"byteLength":4200,
			"byteOffset":279000,
			"target":34963
		}
	],
	"samplers":[
		{
			"magFilter":9729,
			"minFilter":9987
		}
	],
	"buffers":[
		{
			"byteLength":283200,
			"uri":"paddlewheeler.bin"
		}
	]
}
